<?xml version="1.0" encoding="UTF-8" standalone="no"?>
<!-- Created with Inkscape (http://www.inkscape.org/) -->

<svg
   width="210mm"
   height="297mm"
   viewBox="0 0 210 297"
   version="1.1"
   id="svg26199"
   inkscape:version="1.1 (c68e22c387, 2021-05-23)"
   sodipodi:docname="grammar.svg"
   inkscape:export-filename="C:\Users\struh\Documents\GitHub\amadeus-hackathon\presentation\grammar.png"
   inkscape:export-xdpi="105.4"
   inkscape:export-ydpi="105.4"
   xmlns:inkscape="http://www.inkscape.org/namespaces/inkscape"
   xmlns:sodipodi="http://sodipodi.sourceforge.net/DTD/sodipodi-0.dtd"
   xmlns="http://www.w3.org/2000/svg"
   xmlns:svg="http://www.w3.org/2000/svg">
  <sodipodi:namedview
     id="namedview26201"
     pagecolor="#ffffff"
     bordercolor="#666666"
     borderopacity="1.0"
     inkscape:pageshadow="2"
     inkscape:pageopacity="0.0"
     inkscape:pagecheckerboard="0"
     inkscape:document-units="mm"
     showgrid="false"
     showborder="false"
     inkscape:zoom="0.34565095"
     inkscape:cx="79.560029"
     inkscape:cy="454.21544"
     inkscape:window-width="1500"
     inkscape:window-height="978"
     inkscape:window-x="-6"
     inkscape:window-y="-6"
     inkscape:window-maximized="1"
     inkscape:current-layer="layer1" />
  <defs
     id="defs26196" />
  <g
     inkscape:label="Layer 1"
     inkscape:groupmode="layer"
     id="layer1">
    <rect
       style="fill:#ffffff;stroke:#ffffff;stroke-width:0.264583;stroke-dasharray:0.264583, 1.5875"
       id="rect30685"
       width="519.63934"
       height="163.47128"
       x="-204.62332"
       y="53.034607" />
    <g
       id="g26280"
       transform="matrix(0.35277777,0,0,-0.35277777,-206.56284,187.42769)">
      <path
         d="m 225.395,66.762 c 0,-14.77 -41.532,-26.742 -92.762,-26.742 -51.235,0 -92.766,11.972 -92.766,26.742 0,14.765 41.531,26.738 92.766,26.738 51.23,0 92.762,-11.973 92.762,-26.738"
         style="fill:none;stroke:#000000;stroke-width:1;stroke-linecap:butt;stroke-linejoin:miter;stroke-miterlimit:10;stroke-dasharray:none;stroke-opacity:1"
         id="path26282" />
      <text
         transform="matrix(1,0,0,-1,75.132813,70.558594)"
         style="font-variant:normal;font-weight:normal;font-size:14px;font-family:'Times New Roman';-inkscape-font-specification:TimesNewRomanPSMT;writing-mode:lr-tb;fill:#000000;fill-opacity:1;fill-rule:nonzero;stroke:none"
         id="text26288"><tspan
           x="0 9.7440004 17.99 27.733999 36.722 42.714001 49.462002 59.206001 65.197998 71.190002 74.185997 80.933998 87.681999 93.674004 97.412003 100.394 107.898"
           y="0"
           sodipodi:role="line"
           id="tspan26284">ULDBayDesignation</tspan><tspan
           x="32.500008 42.986008 47.494007 57.980007 62.474007 66.982002 77.468002"
           y="15.000006"
           sodipodi:role="line"
           id="tspan26286">m(m)(m)</tspan></text>
      <path
         d="m 430.336,66.762 c 0,-14.77 -37.922,-26.742 -84.703,-26.742 -46.785,0 -84.707,11.972 -84.707,26.742 0,14.765 37.922,26.738 84.707,26.738 46.781,0 84.703,-11.973 84.703,-26.738"
         style="fill:none;stroke:#c0c0c0;stroke-width:1;stroke-linecap:butt;stroke-linejoin:miter;stroke-miterlimit:10;stroke-dasharray:none;stroke-opacity:1"
         id="path26290" />
      <text
         transform="matrix(1,0,0,-1,301.63281,70.558594)"
         style="font-variant:normal;font-weight:normal;font-size:14px;font-family:'Times New Roman';-inkscape-font-specification:TimesNewRomanPSMT;writing-mode:lr-tb;fill:#000000;fill-opacity:1;fill-rule:nonzero;stroke:none"
         id="text26296"><tspan
           x="0 9.7440004 17.99 27.733999 36.722 43.470001 50.973999 56.966 66.695999 74.199997 81.690002"
           y="0"
           sodipodi:role="line"
           id="tspan26292">ULDTypeCode</tspan><tspan
           x="-8.0000057 -2.0080061 8.477994 18.963993 23.457994 27.965994 32.459995 36.967995 41.461994 45.969994 50.463993 54.957993 65.457993 75.943993 80.437996 86.429993 90.923996"
           y="15.000006"
           sodipodi:role="line"
           id="tspan26294">amm((fffff)mm(a))</tspan></text>
      <path
         d="m 225.438,66.762 c 8.289,0 16.687,0 24.996,0"
         style="fill:none;stroke:#000000;stroke-width:1;stroke-linecap:butt;stroke-linejoin:miter;stroke-miterlimit:10;stroke-dasharray:none;stroke-opacity:1"
         id="path26298" />
      <path
         d="m 250.512,70.262 10,-3.5 -10,-3.5 z"
         style="fill:#000000;fill-opacity:1;fill-rule:nonzero;stroke:#000000;stroke-width:1;stroke-linecap:butt;stroke-linejoin:miter;stroke-miterlimit:10;stroke-dasharray:none;stroke-opacity:1"
         id="path26300" />
      <text
         transform="matrix(1,0,0,-1,241.01953,73.558594)"
         style="font-variant:normal;font-weight:normal;font-size:14px;font-family:'Times New Roman';-inkscape-font-specification:TimesNewRomanPSMT;writing-mode:lr-tb;fill:#000000;fill-opacity:1;fill-rule:nonzero;stroke:none"
         id="text26304"><tspan
           x="0"
           y="0"
           id="tspan26302">/</tspan></text>
      <path
         d="m 637.438,66.762 c 0,-14.77 -35.731,-26.742 -79.805,-26.742 -44.078,0 -79.809,11.972 -79.809,26.742 0,14.765 35.731,26.738 79.809,26.738 44.074,0 79.805,-11.973 79.805,-26.738"
         style="fill:none;stroke:#000000;stroke-width:1;stroke-linecap:butt;stroke-linejoin:miter;stroke-miterlimit:10;stroke-dasharray:none;stroke-opacity:1"
         id="path26306" />
      <text
         transform="matrix(1,0,0,-1,509.13281,70.558594)"
         style="font-variant:normal;font-weight:normal;font-size:14px;font-family:'Times New Roman';-inkscape-font-specification:TimesNewRomanPSMT;writing-mode:lr-tb;fill:#000000;fill-opacity:1;fill-rule:nonzero;stroke:none"
         id="text26312"><tspan
           x="0 9.7440004 16.492001 19.488001 26.992001 32.970001 40.473999 43.456001 50.217999 56.966 65.211998 68.949997 74.942001 78.68 81.662003 89.166"
           y="0"
           sodipodi:role="line"
           id="tspan26308">UnloadingStation</tspan><tspan
           x="38.999996 44.991997 50.969997"
           y="15.000006"
           sodipodi:role="line"
           id="tspan26310">aaa</tspan></text>
      <path
         d="m 187.48,88.469 c 65.61,22.961 178.465,52.863 273.153,29.433 18.074,-4.472 36.496,-12.992 52.359,-21.816"
         style="fill:none;stroke:#000000;stroke-width:1;stroke-linecap:butt;stroke-linejoin:miter;stroke-miterlimit:10;stroke-dasharray:none;stroke-opacity:1"
         id="path26314" />
      <path
         d="m 515.102,98.91 6.918,-8.023 -10.415,1.961 z"
         style="fill:#000000;fill-opacity:1;fill-rule:nonzero;stroke:#000000;stroke-width:1;stroke-linecap:butt;stroke-linejoin:miter;stroke-miterlimit:10;stroke-dasharray:none;stroke-opacity:1"
         id="path26316" />
      <text
         transform="matrix(1,0,0,-1,456.63281,115.42969)"
         style="font-variant:normal;font-weight:normal;font-size:14px;font-family:'Times New Roman';-inkscape-font-specification:TimesNewRomanPSMT;writing-mode:lr-tb;fill:#000000;fill-opacity:1;fill-rule:nonzero;stroke:none"
         id="text26320"><tspan
           x="0"
           y="0"
           id="tspan26318">/</tspan></text>
      <path
         d="m 951.309,66.762 c 0,-14.77 -30.746,-26.742 -68.676,-26.742 -37.934,0 -68.68,11.972 -68.68,26.742 0,14.765 30.746,26.738 68.68,26.738 37.93,0 68.676,-11.973 68.676,-26.738"
         style="fill:none;stroke:#000000;stroke-width:1;stroke-linecap:butt;stroke-linejoin:miter;stroke-miterlimit:10;stroke-dasharray:none;stroke-opacity:1"
         id="path26322" />
      <text
         transform="matrix(1,0,0,-1,842.13281,70.558594)"
         style="font-variant:normal;font-weight:normal;font-size:14px;font-family:'Times New Roman';-inkscape-font-specification:TimesNewRomanPSMT;writing-mode:lr-tb;fill:#000000;fill-opacity:1;fill-rule:nonzero;stroke:none"
         id="text26328"><tspan
           x="0 8.2320004 15.736 21.728001 29.232 38.962002 44.953999 48.692001 54.683998 61.431999 68.921997 73.43"
           y="0"
           sodipodi:role="line"
           id="tspan26324">LoadCategory</tspan><tspan
           x="29.500002 35.492001 39.986004 45.978001"
           y="15.000006"
           sodipodi:role="line"
           id="tspan26326">a(a)</tspan></text>
      <path
         d="m 195.098,86.844 c 39.527,11.636 91.968,25.129 139.535,31.058 100.035,12.465 353.555,-7.73 453,-24.273 10.613,-1.766 21.734,-4.281 32.476,-7.07"
         style="fill:none;stroke:#000000;stroke-width:1;stroke-linecap:butt;stroke-linejoin:miter;stroke-miterlimit:10;stroke-dasharray:none;stroke-opacity:1"
         id="path26330" />
      <path
         d="m 821.102,89.914 8.742,-5.984 -10.567,-0.774 z"
         style="fill:#000000;fill-opacity:1;fill-rule:nonzero;stroke:#000000;stroke-width:1;stroke-linecap:butt;stroke-linejoin:miter;stroke-miterlimit:10;stroke-dasharray:none;stroke-opacity:1"
         id="path26332" />
      <text
         transform="matrix(1,0,0,-1,334.63281,115.42969)"
         style="font-variant:normal;font-weight:normal;font-size:14px;font-family:'Times New Roman';-inkscape-font-specification:TimesNewRomanPSMT;writing-mode:lr-tb;fill:#000000;fill-opacity:1;fill-rule:nonzero;stroke:none"
         id="text26336"><tspan
           x="0"
           y="0"
           id="tspan26334">/</tspan></text>
      <path
         d="m 430.637,66.762 c 12.062,0 24.496,0 36.652,0"
         style="fill:none;stroke:#000000;stroke-width:1;stroke-linecap:butt;stroke-linejoin:miter;stroke-miterlimit:10;stroke-dasharray:none;stroke-opacity:1"
         id="path26338" />
      <path
         d="m 467.422,70.262 10,-3.5 -10,-3.5 z"
         style="fill:#000000;fill-opacity:1;fill-rule:nonzero;stroke:#000000;stroke-width:1;stroke-linecap:butt;stroke-linejoin:miter;stroke-miterlimit:10;stroke-dasharray:none;stroke-opacity:1"
         id="path26340" />
      <text
         transform="matrix(1,0,0,-1,452.10547,73.558594)"
         style="font-variant:normal;font-weight:normal;font-size:14px;font-family:'Times New Roman';-inkscape-font-specification:TimesNewRomanPSMT;writing-mode:lr-tb;fill:#000000;fill-opacity:1;fill-rule:nonzero;stroke:none"
         id="text26344"><tspan
           x="0"
           y="0"
           id="tspan26342">/</tspan></text>
      <path
         d="m 377.176,91.816 c 20.16,13.43 47.5,27.059 74.457,26.086 149.625,-5.398 188.535,1.629 336,-24.273 10.359,-1.82 21.215,-4.313 31.73,-7.047"
         style="fill:none;stroke:#000000;stroke-width:1;stroke-linecap:butt;stroke-linejoin:miter;stroke-miterlimit:10;stroke-dasharray:none;stroke-opacity:1"
         id="path26346" />
      <path
         d="m 820.57,89.879 8.743,-5.984 -10.567,-0.774 z"
         style="fill:#000000;fill-opacity:1;fill-rule:nonzero;stroke:#000000;stroke-width:1;stroke-linecap:butt;stroke-linejoin:miter;stroke-miterlimit:10;stroke-dasharray:none;stroke-opacity:1"
         id="path26348" />
      <text
         transform="matrix(1,0,0,-1,447.63281,115.42969)"
         style="font-variant:normal;font-weight:normal;font-size:14px;font-family:'Times New Roman';-inkscape-font-specification:TimesNewRomanPSMT;writing-mode:lr-tb;fill:#000000;fill-opacity:1;fill-rule:nonzero;stroke:none"
         id="text26352"><tspan
           x="0"
           y="0"
           id="tspan26350">/</tspan></text>
      <path
         d="m 778.695,66.762 c 0,-14.77 -23.757,-26.742 -53.062,-26.742 -29.309,0 -53.067,11.972 -53.067,26.742 0,14.765 23.758,26.738 53.067,26.738 29.305,0 53.062,-11.973 53.062,-26.738"
         style="fill:none;stroke:#000000;stroke-width:1;stroke-linecap:butt;stroke-linejoin:miter;stroke-miterlimit:10;stroke-dasharray:none;stroke-opacity:1"
         id="path26354" />
      <text
         transform="matrix(1,0,0,-1,705.63281,70.558594)"
         style="font-variant:normal;font-weight:normal;font-size:14px;font-family:'Times New Roman';-inkscape-font-specification:TimesNewRomanPSMT;writing-mode:lr-tb;fill:#000000;fill-opacity:1;fill-rule:nonzero;stroke:none"
         id="text26360"><tspan
           x="0 13.482 19.474001 22.469999 29.218 35.966"
           y="0"
           sodipodi:role="line"
           id="tspan26356">Weight</tspan><tspan
           x="-9.4999943 -5.0059938 -0.49799401 3.996006 8.5040064 12.998006 17.506006 22.000006 26.494005 31.002007 35.496006 40.004005 44.498005"
           y="15.000006"
           sodipodi:role="line"
           id="tspan26358">f(f)(f)(f)(f)</tspan></text>
      <path
         d="m 637.695,66.762 c 8.321,0 16.688,0 24.785,0"
         style="fill:none;stroke:#000000;stroke-width:1;stroke-linecap:butt;stroke-linejoin:miter;stroke-miterlimit:10;stroke-dasharray:none;stroke-opacity:1"
         id="path26362" />
      <path
         d="m 662.563,70.262 10,-3.5 -10,-3.5 z"
         style="fill:#000000;fill-opacity:1;fill-rule:nonzero;stroke:#000000;stroke-width:1;stroke-linecap:butt;stroke-linejoin:miter;stroke-miterlimit:10;stroke-dasharray:none;stroke-opacity:1"
         id="path26364" />
      <text
         transform="matrix(1,0,0,-1,653.06641,73.558594)"
         style="font-variant:normal;font-weight:normal;font-size:14px;font-family:'Times New Roman';-inkscape-font-specification:TimesNewRomanPSMT;writing-mode:lr-tb;fill:#000000;fill-opacity:1;fill-rule:nonzero;stroke:none"
         id="text26368"><tspan
           x="0"
           y="0"
           id="tspan26366">/</tspan></text>
      <path
         d="m 778.785,66.762 c 8.031,0 16.461,0 24.895,0"
         style="fill:none;stroke:#000000;stroke-width:1;stroke-linecap:butt;stroke-linejoin:miter;stroke-miterlimit:10;stroke-dasharray:none;stroke-opacity:1"
         id="path26370" />
      <path
         d="m 803.945,70.262 10,-3.5 -10,-3.5 z"
         style="fill:#000000;fill-opacity:1;fill-rule:nonzero;stroke:#000000;stroke-width:1;stroke-linecap:butt;stroke-linejoin:miter;stroke-miterlimit:10;stroke-dasharray:none;stroke-opacity:1"
         id="path26372" />
      <text
         transform="matrix(1,0,0,-1,794.35156,73.558594)"
         style="font-variant:normal;font-weight:normal;font-size:14px;font-family:'Times New Roman';-inkscape-font-specification:TimesNewRomanPSMT;writing-mode:lr-tb;fill:#000000;fill-opacity:1;fill-rule:nonzero;stroke:none"
         id="text26376"><tspan
           x="0"
           y="0"
           id="tspan26374">/</tspan></text>
      <path
         d="m 829.844,83.93 c -13.617,3.808 -28.348,7.394 -42.211,9.699 -99.445,16.543 -352.965,36.738 -453,24.273 -43.664,-5.441 -91.438,-17.257 -129.559,-28.16"
         style="fill:none;stroke:#000000;stroke-width:1;stroke-linecap:butt;stroke-linejoin:miter;stroke-miterlimit:10;stroke-dasharray:none;stroke-opacity:1"
         id="path26378" />
      <path
         d="m 205.676,86.27 -10.578,0.574 8.629,6.148 z"
         style="fill:#000000;fill-opacity:1;fill-rule:nonzero;stroke:#000000;stroke-width:1;stroke-linecap:butt;stroke-linejoin:miter;stroke-miterlimit:10;stroke-dasharray:none;stroke-opacity:1"
         id="path26380" />
      <text
         transform="matrix(1,0,0,-1,334.13281,115.42969)"
         style="font-variant:normal;font-weight:normal;font-size:14px;font-family:'Times New Roman';-inkscape-font-specification:TimesNewRomanPSMT;writing-mode:lr-tb;fill:#000000;fill-opacity:1;fill-rule:nonzero;stroke:none"
         id="text26384"><tspan
           x="0"
           y="0"
           id="tspan26382">-</tspan></text>
      <path
         d="m 946.824,76.453 c 13.051,-1.058 22.395,-4.289 22.395,-9.691 0,-3.887 -4.824,-6.649 -12.387,-8.285"
         style="fill:none;stroke:#000000;stroke-width:1;stroke-linecap:butt;stroke-linejoin:miter;stroke-miterlimit:10;stroke-dasharray:none;stroke-opacity:1"
         id="path26386" />
      <path
         d="m 957.215,54.996 -10.391,2.07 9.418,4.86 z"
         style="fill:#000000;fill-opacity:1;fill-rule:nonzero;stroke:#000000;stroke-width:1;stroke-linecap:butt;stroke-linejoin:miter;stroke-miterlimit:10;stroke-dasharray:none;stroke-opacity:1"
         id="path26388" />
      <text
         transform="matrix(1,0,0,-1,969.21875,63.058594)"
         style="font-variant:normal;font-weight:normal;font-size:14px;font-family:'Times New Roman';-inkscape-font-specification:TimesNewRomanPSMT;writing-mode:lr-tb;fill:#000000;fill-opacity:1;fill-rule:nonzero;stroke:none"
         id="text26392"><tspan
           x="0"
           y="0"
           id="tspan26390">/</tspan></text>
      <path
         d="m 1136.824,66.762 c 0,-14.77 -28.738,-26.742 -64.191,-26.742 -35.457,0 -64.195,11.972 -64.195,26.742 0,14.765 28.738,26.738 64.195,26.738 35.453,0 64.191,-11.973 64.191,-26.738"
         style="fill:none;stroke:#c0c0c0;stroke-width:1;stroke-linecap:butt;stroke-linejoin:miter;stroke-miterlimit:10;stroke-dasharray:none;stroke-opacity:1"
         id="path26394" />
      <text
         transform="matrix(1,0,0,-1,1035.1328,70.558594)"
         style="font-variant:normal;font-weight:normal;font-size:14px;font-family:'Times New Roman';-inkscape-font-specification:TimesNewRomanPSMT;writing-mode:lr-tb;fill:#000000;fill-opacity:1;fill-rule:nonzero;stroke:none"
         id="text26400"><tspan
           x="0 9.7440004 17.247999 20.23 26.992001 37.478001 43.456001 53.200001 60.703999 68.194"
           y="0"
           sodipodi:role="line"
           id="tspan26396">VolumeCode</tspan><tspan
           x="35"
           y="15.000006"
           id="tspan26398">f</tspan></text>
      <path
         d="m 951.285,66.762 c 15.551,0 31.106,0 46.66,0"
         style="fill:none;stroke:#000000;stroke-width:1;stroke-linecap:butt;stroke-linejoin:miter;stroke-miterlimit:10;stroke-dasharray:none;stroke-opacity:1"
         id="path26402" />
      <path
         d="m 998.164,70.262 10,-3.5 -10,-3.5 z"
         style="fill:#000000;fill-opacity:1;fill-rule:nonzero;stroke:#000000;stroke-width:1;stroke-linecap:butt;stroke-linejoin:miter;stroke-miterlimit:10;stroke-dasharray:none;stroke-opacity:1"
         id="path26404" />
      <path
         d="m 1305.066,66.762 c 0,-14.77 -29.742,-26.742 -66.433,-26.742 -36.695,0 -66.438,11.972 -66.438,26.742 0,14.765 29.743,26.738 66.438,26.738 36.691,0 66.433,-11.973 66.433,-26.738"
         style="fill:none;stroke:#c0c0c0;stroke-width:1;stroke-linecap:butt;stroke-linejoin:miter;stroke-miterlimit:10;stroke-dasharray:none;stroke-opacity:1"
         id="path26406" />
      <text
         transform="matrix(1,0,0,-1,1199.6328,70.558594)"
         style="font-variant:normal;font-weight:normal;font-size:14px;font-family:'Times New Roman';-inkscape-font-specification:TimesNewRomanPSMT;writing-mode:lr-tb;fill:#000000;fill-opacity:1;fill-rule:nonzero;stroke:none"
         id="text26412"><tspan
           x="0 9.7299995 17.233999 23.982 27.719999 35.223999 41.972 46.48 56.209999 63.714001 71.204002"
           y="0"
           sodipodi:role="line"
           id="tspan26408">ContourCode</tspan><tspan
           x="17.5 23.492001 29.469999 35.462002 39.200001 49.686001"
           y="15.000006"
           sodipodi:role="line"
           id="tspan26410">aaa/mm</tspan></text>
      <path
         d="m 923.293,88.539 c 36.25,16.918 91.043,36.418 140.34,29.363 39.637,-5.675 82.84,-18.23 116.398,-29.48"
         style="fill:none;stroke:#000000;stroke-width:1;stroke-linecap:butt;stroke-linejoin:miter;stroke-miterlimit:10;stroke-dasharray:none;stroke-opacity:1"
         id="path26414" />
      <path
         d="m 1181.336,91.676 8.34,-6.539 -10.598,-0.09 z"
         style="fill:#000000;fill-opacity:1;fill-rule:nonzero;stroke:#000000;stroke-width:1;stroke-linecap:butt;stroke-linejoin:miter;stroke-miterlimit:10;stroke-dasharray:none;stroke-opacity:1"
         id="path26416" />
      <text
         transform="matrix(1,0,0,-1,1059.6328,115.42969)"
         style="font-variant:normal;font-weight:normal;font-size:14px;font-family:'Times New Roman';-inkscape-font-specification:TimesNewRomanPSMT;writing-mode:lr-tb;fill:#000000;fill-opacity:1;fill-rule:nonzero;stroke:none"
         id="text26420"><tspan
           x="0"
           y="0"
           id="tspan26418">.</tspan></text>
      <path
         d="m 1434.355,66.762 c 0,-14.77 -24.949,-26.742 -55.722,-26.742 -30.778,0 -55.727,11.972 -55.727,26.742 0,14.765 24.949,26.738 55.727,26.738 30.773,0 55.722,-11.973 55.722,-26.738"
         style="fill:none;stroke:#c0c0c0;stroke-width:1;stroke-linecap:butt;stroke-linejoin:miter;stroke-miterlimit:10;stroke-dasharray:none;stroke-opacity:1"
         id="path26422" />
      <text
         transform="matrix(1,0,0,-1,1366.1328,70.558594)"
         style="font-variant:normal;font-weight:normal;font-size:14px;font-family:'Times New Roman';-inkscape-font-specification:TimesNewRomanPSMT;writing-mode:lr-tb;fill:#000000;fill-opacity:1;fill-rule:nonzero;stroke:none"
         id="text26428"><tspan
           x="0 4.494 16.492001"
           y="0"
           sodipodi:role="line"
           id="tspan26424">IMP</tspan><tspan
           x="-19.000002 -13.008002 -7.0300021 -1.038002 3.4699979 7.2079978 11.701998 16.195997 20.703999 25.197998 29.705997 34.199997 38.707996"
           y="15.000006"
           sodipodi:role="line"
           id="tspan26426">aaa(/f(f)(f))</tspan></text>
      <path
         d="m 935.402,84.129 c 60.754,17.996 163.692,42.387 253.231,33.773 56.332,-5.418 70.797,-7.988 125,-24.273 4.648,-1.399 9.426,-3.008 14.176,-4.734"
         style="fill:none;stroke:#000000;stroke-width:1;stroke-linecap:butt;stroke-linejoin:miter;stroke-miterlimit:10;stroke-dasharray:none;stroke-opacity:1"
         id="path26430" />
      <path
         d="m 1329.363,92.047 8.106,-6.824 -10.59,0.281 z"
         style="fill:#000000;fill-opacity:1;fill-rule:nonzero;stroke:#000000;stroke-width:1;stroke-linecap:butt;stroke-linejoin:miter;stroke-miterlimit:10;stroke-dasharray:none;stroke-opacity:1"
         id="path26432" />
      <text
         transform="matrix(1,0,0,-1,1184.6328,115.42969)"
         style="font-variant:normal;font-weight:normal;font-size:14px;font-family:'Times New Roman';-inkscape-font-specification:TimesNewRomanPSMT;writing-mode:lr-tb;fill:#000000;fill-opacity:1;fill-rule:nonzero;stroke:none"
         id="text26436"><tspan
           x="0"
           y="0"
           id="tspan26434">.</tspan></text>
      <path
         d="m 1137.285,66.762 c 8.09,0 16.426,0 24.676,0"
         style="fill:none;stroke:#000000;stroke-width:1;stroke-linecap:butt;stroke-linejoin:miter;stroke-miterlimit:10;stroke-dasharray:none;stroke-opacity:1"
         id="path26438" />
      <path
         d="m 1161.961,70.262 10,-3.5 -10,-3.5 z"
         style="fill:#000000;fill-opacity:1;fill-rule:nonzero;stroke:#000000;stroke-width:1;stroke-linecap:butt;stroke-linejoin:miter;stroke-miterlimit:10;stroke-dasharray:none;stroke-opacity:1"
         id="path26440" />
      <text
         transform="matrix(1,0,0,-1,1152.5703,73.558594)"
         style="font-variant:normal;font-weight:normal;font-size:14px;font-family:'Times New Roman';-inkscape-font-specification:TimesNewRomanPSMT;writing-mode:lr-tb;fill:#000000;fill-opacity:1;fill-rule:nonzero;stroke:none"
         id="text26444"><tspan
           x="0"
           y="0"
           id="tspan26442">.</tspan></text>
      <path
         d="m 1430.742,76.66 c 12.492,-0.777 21.75,-4.074 21.75,-9.898 0,-4.098 -4.578,-6.946 -11.637,-8.543"
         style="fill:none;stroke:#000000;stroke-width:1;stroke-linecap:butt;stroke-linejoin:miter;stroke-miterlimit:10;stroke-dasharray:none;stroke-opacity:1"
         id="path26446" />
      <path
         d="m 1441.117,54.723 -10.375,2.14 9.446,4.797 z"
         style="fill:#000000;fill-opacity:1;fill-rule:nonzero;stroke:#000000;stroke-width:1;stroke-linecap:butt;stroke-linejoin:miter;stroke-miterlimit:10;stroke-dasharray:none;stroke-opacity:1"
         id="path26448" />
      <text
         transform="matrix(1,0,0,-1,1452.4922,63.058594)"
         style="font-variant:normal;font-weight:normal;font-size:14px;font-family:'Times New Roman';-inkscape-font-specification:TimesNewRomanPSMT;writing-mode:lr-tb;fill:#000000;fill-opacity:1;fill-rule:nonzero;stroke:none"
         id="text26452"><tspan
           x="0"
           y="0"
           id="tspan26450">.</tspan></text>
    </g>
    <g
       id="g26636"
       transform="matrix(0.35277777,0,0,-0.35277777,-185.0775,135.06773)">
      <path
         d="m 199.711,77.547 c 0,-14.77 -35.731,-26.742 -79.809,-26.742 -44.074,0 -79.804,11.972 -79.804,26.742 0,14.769 35.73,26.742 79.804,26.742 44.078,0 79.809,-11.973 79.809,-26.742"
         style="fill:none;stroke:#000000;stroke-width:1;stroke-linecap:butt;stroke-linejoin:miter;stroke-miterlimit:10;stroke-dasharray:none;stroke-opacity:1"
         id="path26638" />
      <text
         transform="matrix(1,0,0,-1,71.402344,81.347656)"
         style="font-variant:normal;font-weight:normal;font-size:14px;font-family:'Times New Roman';-inkscape-font-specification:TimesNewRomanPSMT;writing-mode:lr-tb;fill:#000000;fill-opacity:1;fill-rule:nonzero;stroke:none"
         id="text26644"><tspan
           x="0 9.7440004 12.74 17.233999 20.23 23.212 29.959999 35.952 45.695999 51.688 57.68 60.675999 67.424004 74.171997 80.164001 83.902 91.405998"
           y="0"
           sodipodi:role="line"
           id="tspan26640">AirlineDesignator</tspan><tspan
           x="29.999998 40.485996 50.971996 55.48 61.457996"
           y="15.000006"
           sodipodi:role="line"
           id="tspan26642">mm(a)</tspan></text>
      <path
         d="m 366.426,77.547 c 0,-14.77 -29.336,-26.742 -65.524,-26.742 -36.187,0 -65.523,11.972 -65.523,26.742 0,14.769 29.336,26.742 65.523,26.742 36.188,0 65.524,-11.973 65.524,-26.742"
         style="fill:none;stroke:#000000;stroke-width:1;stroke-linecap:butt;stroke-linejoin:miter;stroke-miterlimit:10;stroke-dasharray:none;stroke-opacity:1"
         id="path26646" />
      <text
         transform="matrix(1,0,0,-1,262.40234,81.347656)"
         style="font-variant:normal;font-weight:normal;font-size:14px;font-family:'Times New Roman';-inkscape-font-specification:TimesNewRomanPSMT;writing-mode:lr-tb;fill:#000000;fill-opacity:1;fill-rule:nonzero;stroke:none"
         id="text26652"><tspan
           x="0 8.2460003 11.242 14.224 20.972 27.719999 31.458 41.216 47.964001 58.450001 65.954002 71.931999"
           y="0"
           sodipodi:role="line"
           id="tspan26648">FlightNumber</tspan><tspan
           x="17.000004 21.494003 26.002005 30.496004 35.004005 39.498005 44.006004 48.500004 54.492004"
           y="15.000006"
           sodipodi:role="line"
           id="tspan26650">fff(f)(a)</tspan></text>
      <path
         d="m 200.152,77.547 c 8.207,0 16.414,0 24.621,0"
         style="fill:none;stroke:#000000;stroke-width:1;stroke-linecap:butt;stroke-linejoin:miter;stroke-miterlimit:10;stroke-dasharray:none;stroke-opacity:1"
         id="path26654" />
      <path
         d="m 224.785,81.047 10,-3.5 -10,-3.5 z"
         style="fill:#000000;fill-opacity:1;fill-rule:nonzero;stroke:#000000;stroke-width:1;stroke-linecap:butt;stroke-linejoin:miter;stroke-miterlimit:10;stroke-dasharray:none;stroke-opacity:1"
         id="path26656" />
      <path
         d="m 539.582,77.547 c 0,-14.77 -30.75,-26.742 -68.68,-26.742 -37.929,0 -68.679,11.972 -68.679,26.742 0,14.769 30.75,26.742 68.679,26.742 37.93,0 68.68,-11.973 68.68,-26.742"
         style="fill:none;stroke:#c0c0c0;stroke-width:1;stroke-linecap:butt;stroke-linejoin:miter;stroke-miterlimit:10;stroke-dasharray:none;stroke-opacity:1"
         id="path26658" />
      <text
         transform="matrix(1,0,0,-1,430.40234,81.347656)"
         style="font-variant:normal;font-weight:normal;font-size:14px;font-family:'Times New Roman';-inkscape-font-specification:TimesNewRomanPSMT;writing-mode:lr-tb;fill:#000000;fill-opacity:1;fill-rule:nonzero;stroke:none"
         id="text26664"><tspan
           x="0 9.7440004 15.736 23.24 29.218 33.726002 37.464001 44.212002 48.706001 54.698002 64.442001 70.433998 74.171997"
           y="0"
           sodipodi:role="line"
           id="tspan26660">DepartureDate</tspan><tspan
           x="35.499996 39.993996"
           y="15.000006"
           sodipodi:role="line"
           id="tspan26662">ff</tspan></text>
      <path
         d="m 367.117,77.547 c 8.153,0 16.547,0 24.863,0"
         style="fill:none;stroke:#000000;stroke-width:1;stroke-linecap:butt;stroke-linejoin:miter;stroke-miterlimit:10;stroke-dasharray:none;stroke-opacity:1"
         id="path26666" />
      <path
         d="m 392.066,81.047 10,-3.5 -10,-3.5 z"
         style="fill:#000000;fill-opacity:1;fill-rule:nonzero;stroke:#000000;stroke-width:1;stroke-linecap:butt;stroke-linejoin:miter;stroke-miterlimit:10;stroke-dasharray:none;stroke-opacity:1"
         id="path26668" />
      <text
         transform="matrix(1,0,0,-1,382.48828,84.347656)"
         style="font-variant:normal;font-weight:normal;font-size:14px;font-family:'Times New Roman';-inkscape-font-specification:TimesNewRomanPSMT;writing-mode:lr-tb;fill:#000000;fill-opacity:1;fill-rule:nonzero;stroke:none"
         id="text26672"><tspan
           x="0"
           y="0"
           id="tspan26670">/</tspan></text>
      <path
         d="m 849.262,77.547 c 0,-20.684 -61.5,-37.453 -137.36,-37.453 -75.859,0 -137.355,16.769 -137.355,37.453 0,20.683 61.496,37.453 137.355,37.453 75.86,0 137.36,-16.77 137.36,-37.453"
         style="fill:none;stroke:#000000;stroke-width:1;stroke-linecap:butt;stroke-linejoin:miter;stroke-miterlimit:10;stroke-dasharray:none;stroke-opacity:1"
         id="path26674" />
      <text
         transform="matrix(1,0,0,-1,655.90234,88.847656)"
         style="font-variant:normal;font-weight:normal;font-size:14px;font-family:'Times New Roman';-inkscape-font-specification:TimesNewRomanPSMT;writing-mode:lr-tb;fill:#000000;fill-opacity:1;fill-rule:nonzero;stroke:none"
         id="text26682"><tspan
           x="0 9.7299995 15.722 22.469999 25.466 31.458 35.195999 39.703999 45.681999 49.419998 52.416 59.919998 66.667999 76.412003 83.160004 93.646004 101.15 107.142"
           y="0"
           sodipodi:role="line"
           id="tspan26676">RegistrationNumber</tspan><tspan
           x="-33.000004 -22.514002 -12.028002 -7.5200019 2.9659979 7.4599981 11.967998 22.453999 26.947998 31.455997 41.941998 46.435997 50.943996 61.429996 65.923996 70.431999 80.917999 85.411995 89.919998 100.406 104.9 109.408 119.894 124.388 128.896 139.382"
           y="15.000006"
           sodipodi:role="line"
           id="tspan26678">mm(m)(m)(m)(m)(m)(m)(m)(m)</tspan><tspan
           x="54.000004"
           y="30.000011"
           id="tspan26680">t</tspan></text>
      <path
         d="m 343.625,98.242 c 33.035,14.668 80.387,32.844 124.277,39.285 55.52,8.149 116.852,-7.035 164.137,-24.164"
         style="fill:none;stroke:#000000;stroke-width:1;stroke-linecap:butt;stroke-linejoin:miter;stroke-miterlimit:10;stroke-dasharray:none;stroke-opacity:1"
         id="path26684" />
      <path
         d="m 633.457,116.574 8.148,-6.769 -10.589,0.207 z"
         style="fill:#000000;fill-opacity:1;fill-rule:nonzero;stroke:#000000;stroke-width:1;stroke-linecap:butt;stroke-linejoin:miter;stroke-miterlimit:10;stroke-dasharray:none;stroke-opacity:1"
         id="path26686" />
      <text
         transform="matrix(1,0,0,-1,467.90234,136.82422)"
         style="font-variant:normal;font-weight:normal;font-size:14px;font-family:'Times New Roman';-inkscape-font-specification:TimesNewRomanPSMT;writing-mode:lr-tb;fill:#000000;fill-opacity:1;fill-rule:nonzero;stroke:none"
         id="text26690"><tspan
           x="0"
           y="0"
           id="tspan26688">.</tspan></text>
      <path
         d="m 539.641,77.547 c 8,0 16.375,0 24.941,0"
         style="fill:none;stroke:#000000;stroke-width:1;stroke-linecap:butt;stroke-linejoin:miter;stroke-miterlimit:10;stroke-dasharray:none;stroke-opacity:1"
         id="path26692" />
      <path
         d="m 564.715,81.047 10,-3.5 -10,-3.5 z"
         style="fill:#000000;fill-opacity:1;fill-rule:nonzero;stroke:#000000;stroke-width:1;stroke-linecap:butt;stroke-linejoin:miter;stroke-miterlimit:10;stroke-dasharray:none;stroke-opacity:1"
         id="path26694" />
      <text
         transform="matrix(1,0,0,-1,555.10938,84.347656)"
         style="font-variant:normal;font-weight:normal;font-size:14px;font-family:'Times New Roman';-inkscape-font-specification:TimesNewRomanPSMT;writing-mode:lr-tb;fill:#000000;fill-opacity:1;fill-rule:nonzero;stroke:none"
         id="text26698"><tspan
           x="0"
           y="0"
           id="tspan26696">.</tspan></text>
      <path
         d="m 1039.469,77.547 c 0,-20.684 -34.727,-37.453 -77.567,-37.453 -42.836,0 -77.562,16.769 -77.562,37.453 0,20.683 34.726,37.453 77.562,37.453 42.84,0 77.567,-16.77 77.567,-37.453"
         style="fill:none;stroke:#c0c0c0;stroke-width:1;stroke-linecap:butt;stroke-linejoin:miter;stroke-miterlimit:10;stroke-dasharray:none;stroke-opacity:1"
         id="path26700" />
      <text
         transform="matrix(1,0,0,-1,914.90234,88.847656)"
         style="font-variant:normal;font-weight:normal;font-size:14px;font-family:'Times New Roman';-inkscape-font-specification:TimesNewRomanPSMT;writing-mode:lr-tb;fill:#000000;fill-opacity:1;fill-rule:nonzero;stroke:none"
         id="text26708"><tspan
           x="0 9.7440004 15.736 23.24 29.218 33.726002 37.464001 44.212002 48.706001 54.698002 62.944 66.681999 72.674004 76.412003 79.407997 86.898003"
           y="0"
           sodipodi:role="line"
           id="tspan26702">DepartureStation</tspan><tspan
           x="37.499992 43.491993 49.469994"
           y="15.000006"
           sodipodi:role="line"
           id="tspan26704">aaa</tspan><tspan
           x="44.999989"
           y="30.000011"
           id="tspan26706">t</tspan></text>
      <path
         d="m 849.336,77.547 c 8.297,0 16.519,0 24.519,0"
         style="fill:none;stroke:#000000;stroke-width:1;stroke-linecap:butt;stroke-linejoin:miter;stroke-miterlimit:10;stroke-dasharray:none;stroke-opacity:1"
         id="path26710" />
      <path
         d="m 873.863,81.047 10,-3.5 -10,-3.5 z"
         style="fill:#000000;fill-opacity:1;fill-rule:nonzero;stroke:#000000;stroke-width:1;stroke-linecap:butt;stroke-linejoin:miter;stroke-miterlimit:10;stroke-dasharray:none;stroke-opacity:1"
         id="path26712" />
      <text
         transform="matrix(1,0,0,-1,864.60156,84.347656)"
         style="font-variant:normal;font-weight:normal;font-size:14px;font-family:'Times New Roman';-inkscape-font-specification:TimesNewRomanPSMT;writing-mode:lr-tb;fill:#000000;fill-opacity:1;fill-rule:nonzero;stroke:none"
         id="text26716"><tspan
           x="0"
           y="0"
           id="tspan26714">.</tspan></text>
      <path
         d="m 1252.18,77.547 c 0,-20.684 -39.524,-37.453 -88.278,-37.453 -48.754,0 -88.277,16.769 -88.277,37.453 0,20.683 39.523,37.453 88.277,37.453 48.754,0 88.278,-16.77 88.278,-37.453"
         style="fill:none;stroke:#c0c0c0;stroke-width:1;stroke-linecap:butt;stroke-linejoin:miter;stroke-miterlimit:10;stroke-dasharray:none;stroke-opacity:1"
         id="path26718" />
      <text
         transform="matrix(1,0,0,-1,1109.4023,88.847656)"
         style="font-variant:normal;font-weight:normal;font-size:14px;font-family:'Times New Roman';-inkscape-font-specification:TimesNewRomanPSMT;writing-mode:lr-tb;fill:#000000;fill-opacity:1;fill-rule:nonzero;stroke:none"
         id="text26726"><tspan
           x="0 9.7440004 17.99 27.733999 35.237999 41.972 49.476002 56.223999 60.717999 63.714001 70.461998 77.209999 81.704002 87.695999 91.433998 94.43 101.92"
           y="0"
           sodipodi:role="line"
           id="tspan26720">ULD_configuration</tspan><tspan
           x="29.999998 40.485996 47.191998 53.967999 57.719997 64.467995 71.229996"
           y="15.000006"
           sodipodi:role="line"
           id="tspan26722">m{1,12}</tspan><tspan
           x="52.5"
           y="30.000011"
           id="tspan26724">t</tspan></text>
      <path
         d="m 784.758,109.434 c 49.926,18.242 117.937,36.058 179.144,28.093 42.239,-5.496 87.836,-18.582 124.813,-31.136"
         style="fill:none;stroke:#000000;stroke-width:1;stroke-linecap:butt;stroke-linejoin:miter;stroke-miterlimit:10;stroke-dasharray:none;stroke-opacity:1"
         id="path26728" />
      <path
         d="m 1090.102,109.617 8.312,-6.57 -10.598,-0.047 z"
         style="fill:#000000;fill-opacity:1;fill-rule:nonzero;stroke:#000000;stroke-width:1;stroke-linecap:butt;stroke-linejoin:miter;stroke-miterlimit:10;stroke-dasharray:none;stroke-opacity:1"
         id="path26730" />
      <text
         transform="matrix(1,0,0,-1,959.90234,136.82422)"
         style="font-variant:normal;font-weight:normal;font-size:14px;font-family:'Times New Roman';-inkscape-font-specification:TimesNewRomanPSMT;writing-mode:lr-tb;fill:#000000;fill-opacity:1;fill-rule:nonzero;stroke:none"
         id="text26734"><tspan
           x="0"
           y="0"
           id="tspan26732">.</tspan></text>
      <path
         d="m 1039.711,77.547 c 8.391,0 17.004,0 25.594,0"
         style="fill:none;stroke:#000000;stroke-width:1;stroke-linecap:butt;stroke-linejoin:miter;stroke-miterlimit:10;stroke-dasharray:none;stroke-opacity:1"
         id="path26736" />
      <path
         d="m 1065.363,81.047 10,-3.5 -10,-3.5 z"
         style="fill:#000000;fill-opacity:1;fill-rule:nonzero;stroke:#000000;stroke-width:1;stroke-linecap:butt;stroke-linejoin:miter;stroke-miterlimit:10;stroke-dasharray:none;stroke-opacity:1"
         id="path26738" />
      <text
         transform="matrix(1,0,0,-1,1055.6016,84.347656)"
         style="font-variant:normal;font-weight:normal;font-size:14px;font-family:'Times New Roman';-inkscape-font-specification:TimesNewRomanPSMT;writing-mode:lr-tb;fill:#000000;fill-opacity:1;fill-rule:nonzero;stroke:none"
         id="text26742"><tspan
           x="0"
           y="0"
           id="tspan26740">.</tspan></text>
    </g>
    <text
       xml:space="preserve"
       style="font-size:7.05556px;line-height:1.25;font-family:sans-serif;stroke-width:0.264583"
       x="-184.03"
       y="81.730972"
       id="text27602"><tspan
         sodipodi:role="line"
         id="tspan27600"
         style="stroke-width:0.264583"
         x="-184.03"
         y="81.730972">carrier:</tspan></text>
    <text
       xml:space="preserve"
       style="font-size:7.05556px;line-height:1.25;font-family:sans-serif;stroke-width:0.264583"
       x="-184.03"
       y="136.39871"
       id="text28464"><tspan
         sodipodi:role="line"
         id="tspan28462"
         style="stroke-width:0.264583"
         x="-184.03"
         y="136.39871">uld:</tspan></text>
  </g>
</svg>
